<svg width="26" height="29" viewBox="0 0 26 29" fill="none" xmlns="http://www.w3.org/2000/svg">
<g id="Group 6">
<rect id="Rectangle 1" x="12.1567" y="13.5" width="1.765" height="2.06522" fill="white" stroke="white"/>
<rect id="Rectangle 10" x="12.1567" y="7.36963" width="1.765" height="2.06522" fill="white" stroke="white"/>
<rect id="Rectangle 12" x="6.62671" y="13.5" width="1.765" height="2.06522" fill="white" stroke="white"/>
<rect id="Rectangle 13" x="1.09668" y="13.5" width="1.765" height="2.06522" fill="white" stroke="white"/>
<rect id="Rectangle 11" x="12.1567" y="1.23926" width="1.765" height="2.06522" fill="white" stroke="white"/>
<rect id="Rectangle 4" x="12.1567" y="19.6304" width="1.765" height="2.06522" fill="white" stroke="white"/>
<rect id="Rectangle 7" x="12.1567" y="25.7612" width="1.765" height="2.06522" fill="white" stroke="white"/>
<rect id="Rectangle 2" x="17.6866" y="13.5" width="1.765" height="2.06522" fill="white" stroke="white"/>
<rect id="Rectangle 5" x="17.6866" y="19.6304" width="1.765" height="2.06522" fill="white" stroke="white"/>
<rect id="Rectangle 8" x="17.6866" y="25.7612" width="1.765" height="2.06522" fill="white" stroke="white"/>
<rect id="Rectangle 3" x="23.2167" y="13.5" width="1.765" height="2.06522" fill="white" stroke="white"/>
<rect id="Rectangle 6" x="23.2167" y="19.6304" width="1.765" height="2.06522" fill="white" stroke="white"/>
<rect id="Rectangle 9" x="23.2167" y="25.7612" width="1.765" height="2.06522" fill="white" stroke="white"/>
<g id="Rectangle 14">
<mask id="path-14-inside-1_418_7089" fill="white">
<rect x="0.59668" y="0.739258" width="8.295" height="9.19565" rx="1"/>
</mask>
<rect x="0.59668" y="0.739258" width="8.295" height="9.19565" rx="1" stroke="white" stroke-width="4" mask="url(#path-14-inside-1_418_7089)"/>
</g>
<g id="Rectangle 16">
<mask id="path-15-inside-2_418_7089" fill="white">
<rect x="0.59668" y="19.1304" width="8.295" height="9.19565" rx="1"/>
</mask>
<rect x="0.59668" y="19.1304" width="8.295" height="9.19565" rx="1" stroke="white" stroke-width="4" mask="url(#path-15-inside-2_418_7089)"/>
</g>
<g id="Rectangle 15">
<mask id="path-16-inside-3_418_7089" fill="white">
<rect x="17.1866" y="0.739258" width="8.295" height="9.19565" rx="1"/>
</mask>
<rect x="17.1866" y="0.739258" width="8.295" height="9.19565" rx="1" stroke="white" stroke-width="4" mask="url(#path-16-inside-3_418_7089)"/>
</g>
</g>
</svg>
