<?xml version="1.0" encoding="UTF-8"?>
<svg id="Layer_1" data-name="Layer 1" xmlns="http://www.w3.org/2000/svg" viewBox="0 0 397.03 68.1">
  <defs>
    <style>
      .cls-1 {
        fill: none;
      }

      .cls-1, .cls-2 {
        stroke-width: 0px;
      }

      .cls-2 {
        fill: #fff;
      }
    </style>
  </defs>
  <path class="cls-1" d="m301.75,18.12c-.07-.17-.31-.17-.38,0l-8.71,21.27c-.06.14.04.29.19.29h17.42c.15,0,.25-.15.19-.29l-8.71-21.27Z"/>
  <path class="cls-1" d="m26.49,13.67h-11.34c-.11,0-.21.09-.21.21v20.35c0,.11.09.21.21.21h11.63c7.47,0,11.84-4.46,11.84-10.29v-.19c0-6.69-4.66-10.28-12.13-10.28Z"/>
  <path class="cls-1" d="m177.07,13.67h-14.64c-.11,0-.21.09-.21.21v19.09c0,.11.09.21.21.21h14.93c7.37,0,11.45-3.78,11.45-9.61v-.19c0-6.5-4.36-9.7-11.74-9.7Z"/>
  <path class="cls-2" d="m27.75.18H2.24C1,.18,0,1.18,0,2.42v63.43c0,1.24,1,2.24,2.24,2.24h10.46c1.24,0,2.24-1,2.24-2.24v-17.93c0-.11.09-.21.21-.21h11.14c15.23,0,27.46-8.05,27.46-23.87v-.19C53.75,9.69,43.95.18,27.75.18Zm10.87,23.96c0,5.82-4.37,10.29-11.84,10.29h-11.63c-.11,0-.21-.09-.21-.21V13.87c0-.11.09-.21.21-.21h11.34c7.47,0,12.13,3.59,12.13,10.28v.19Z"/>
  <path class="cls-2" d="m190.93,46.09c-.76-1.11-.39-2.66.82-3.24,7.34-3.53,12.2-10.12,12.2-20.06v-.19c0-6.5-1.94-11.64-5.82-15.52-4.56-4.56-11.16-6.89-19.79-6.89h-28.8c-1.24,0-2.24,1-2.24,2.24v63.43c0,1.24,1,2.24,2.24,2.24h10.46c1.24,0,2.24-1,2.24-2.24v-19.28c0-.11.09-.21.21-.21h11.42c.07,0,.13.03.17.09l13.83,20.65c.42.62,1.11.99,1.86.99h12.02c1.8,0,2.87-2.02,1.85-3.51l-12.66-18.51Zm-2.12-22.52c0,5.82-4.07,9.61-11.45,9.61h-14.93c-.11,0-.21-.09-.21-.21V13.87c0-.11.09-.21.21-.21h14.64c7.38,0,11.74,3.2,11.74,9.7v.19Z"/>
  <path class="cls-2" d="m268.86,11.72V2.42c0-1.24-1-2.24-2.24-2.24h-51.79c-1.24,0-2.24,1-2.24,2.24v9.3c0,1.24,1,2.24,2.24,2.24h18.22c.11,0,.21.09.21.21v51.69c0,1.24,1,2.24,2.24,2.24h10.46c1.24,0,2.24-1,2.24-2.24V14.17c0-.11.09-.21.21-.21h18.22c1.24,0,2.24-1,2.24-2.24Z"/>
  <path class="cls-2" d="m309.19,1.36c-.35-.82-1.16-1.36-2.05-1.36h-10.77c-.89,0-1.7.53-2.05,1.36l-27.08,63.63c-.63,1.47.45,3.1,2.05,3.1h10.29c.91,0,1.72-.55,2.07-1.39l5.56-13.65c.03-.08.11-.13.19-.13h28.31c.08,0,.16.05.19.13l5.56,13.65c.34.84,1.16,1.39,2.07,1.39h10.68c1.6,0,2.68-1.63,2.05-3.1L309.19,1.36Zm1.04,38.44h-17.35c-.15,0-.25-.15-.19-.29l8.67-21.17c.07-.17.31-.17.38,0l8.67,21.17c.06.14-.04.29-.19.29Z"/>
  <path class="cls-2" d="m394.79,54.51h-31.41c-.11,0-.21-.09-.21-.21V2.42c0-1.24-1-2.24-2.24-2.24h-10.46c-1.24,0-2.24,1-2.24,2.24v63.43c0,1.24,1,2.24,2.24,2.24h44.32c1.24,0,2.24-1,2.24-2.24v-9.1c0-1.24-1-2.24-2.24-2.24Z"/>
  <path class="cls-2" d="m127.47,59.01c-.79,1.17-1.63,2.29-2.53,3.36h-54.27c-.89-1.06-1.72-2.17-2.49-3.33-4.91.95-7.84,2.14-7.84,3.43,0,3.1,16.81,5.62,37.56,5.62s37.56-2.52,37.56-5.62c0-1.31-2.99-2.51-7.98-3.46Z"/>
  <path class="cls-2" d="m87.58,57.07c2.99,1.9,6.52,2.99,10.42,2.99s7.46-1.09,10.44-2.98c-3.34-.15-6.88-.23-10.53-.23s-7.04.08-10.32.22Z"/>
  <path class="cls-2" d="m77.43,37.73v-.21c0-12.45,8.34-22.61,20.37-22.61s20.57,10.37,20.57,22.82v.21c0,8.38-3.79,15.73-9.94,19.63,7.64.33,14.26,1.02,19.04,1.93,4.13-6.15,6.52-13.66,6.52-21.77v-.21C133.99,16.88,118.95.18,98,.18s-36.19,16.91-36.19,37.55v.21c0,8.06,2.32,15.5,6.38,21.59,4.83-.94,11.59-1.64,19.39-1.97-6.24-3.95-10.15-11.42-10.15-19.83Z"/>
  <path class="cls-2" d="m124.94,62.37c.91-1.06,1.75-2.19,2.53-3.36-4.78-.91-11.41-1.6-19.04-1.93-2.98,1.89-6.51,2.98-10.44,2.98s-7.43-1.09-10.42-2.99c-7.8.33-14.56,1.03-19.39,1.97.77,1.16,1.6,2.27,2.49,3.33h54.27Z"/>
</svg>