<?xml version="1.0" encoding="UTF-8"?>
<svg id="Layer_1" data-name="Layer 1" xmlns="http://www.w3.org/2000/svg" viewBox="0 0 397.03 68.1">
  <defs>
    <style>
      .cls-1 {
        fill: none;
      }

      .cls-1, .cls-2, .cls-3 {
        stroke-width: 0px;
      }

      .cls-3 {
        fill: #231f20;
      }
    </style>
  </defs>
  <path class="cls-3" d="m0,2.32C0,1.09,1,.08,2.24.08h25.51c16.2,0,26,9.51,26,23.48v.19c0,15.81-12.22,23.87-27.46,23.87h-11.14c-.11,0-.21.09-.21.21v17.93c0,1.24-1,2.24-2.24,2.24H2.24c-1.24,0-2.24-1-2.24-2.24V2.32Zm26.78,32.01c7.47,0,11.84-4.46,11.84-10.29v-.19c0-6.69-4.66-10.28-12.13-10.28h-11.34c-.11,0-.21.09-.21.21v20.35c0,.11.09.21.21.21h11.63Z"/>
  <path class="cls-3" d="m147.29,2.32c0-1.24,1-2.24,2.24-2.24h28.8c8.63,0,15.23,2.33,19.79,6.89,3.88,3.88,5.82,9.02,5.82,15.52v.19c0,9.94-4.86,16.52-12.2,20.06-1.21.58-1.58,2.13-.82,3.24l12.66,18.51c1.02,1.49-.05,3.51-1.85,3.51h-12.02c-.75,0-1.45-.37-1.86-.99l-13.83-20.65c-.04-.06-.1-.09-.17-.09h-11.42c-.11,0-.21.09-.21.21v19.28c0,1.24-1,2.24-2.24,2.24h-10.46c-1.24,0-2.24-1-2.24-2.24V2.32Zm30.08,30.75c7.37,0,11.45-3.78,11.45-9.61v-.19c0-6.5-4.36-9.7-11.74-9.7h-14.64c-.11,0-.21.09-.21.21v19.09c0,.11.09.21.21.21h14.93Z"/>
  <path class="cls-3" d="m233.05,13.86h-18.22c-1.24,0-2.24-1-2.24-2.24V2.32c0-1.24,1-2.24,2.24-2.24h51.79c1.24,0,2.24,1,2.24,2.24v9.3c0,1.24-1,2.24-2.24,2.24h-18.22c-.11,0-.21.09-.21.21v51.69c0,1.24-1,2.24-2.24,2.24h-10.46c-1.24,0-2.24-1-2.24-2.24V14.07c0-.11-.09-.21-.21-.21Z"/>
  <path class="cls-3" d="m296.39.08h10.74c.89,0,1.7.53,2.05,1.35l27,63.47c.62,1.47-.45,3.1-2.05,3.1h-10.65c-.9,0-1.72-.55-2.06-1.38l-5.55-13.61c-.03-.08-.11-.13-.19-.13h-28.24c-.08,0-.16.05-.19.13l-5.55,13.61c-.34.84-1.16,1.38-2.06,1.38h-10.27c-1.59,0-2.67-1.63-2.05-3.1L294.34,1.44c.35-.82,1.16-1.35,2.05-1.35Zm14.02,39.4l-8.65-21.12c-.07-.17-.31-.17-.38,0l-8.65,21.12c-.06.14.04.28.19.28h17.3c.15,0,.25-.15.19-.28Z"/>
  <path class="cls-3" d="m350.47.08h10.46c1.24,0,2.24,1,2.24,2.24v51.88c0,.11.09.21.21.21h31.41c1.24,0,2.24,1,2.24,2.24v9.1c0,1.24-1,2.24-2.24,2.24h-44.32c-1.24,0-2.24-1-2.24-2.24V2.32c0-1.24,1-2.24,2.24-2.24Z"/>
  <ellipse class="cls-3" cx="97.9" cy="62.38" rx="37.56" ry="5.62"/>
  <path class="cls-1" d="m97.8,14.32c-12.03,0-20.37,10.16-20.37,22.61v.21c0,12.45,8.54,22.82,20.57,22.82s20.38-10.16,20.38-22.61v-.21c0-12.45-8.54-22.82-20.57-22.82Z"/>
  <path class="cls-2" d="m133.99,37.34c0-20.64-15.04-37.34-35.99-37.34s-36.19,16.91-36.19,37.55v.21c0,9.6,3.28,18.31,8.87,24.92h54.27c5.69-6.67,9.05-15.48,9.05-25.13v-.21Zm-15.62.01c0,12.45-8.34,22.61-20.38,22.61s-20.57-10.37-20.57-22.82v-.21c0-12.45,8.34-22.61,20.37-22.61s20.57,10.37,20.57,22.82v.21Z"/>
</svg>