<?xml version="1.0" encoding="UTF-8"?>
<svg id="Layer_1" data-name="Layer 1" xmlns="http://www.w3.org/2000/svg" viewBox="0 0 300 271.26">
  <defs>
    <style>
      .cls-1 {
        fill: none;
      }

      .cls-1, .cls-2, .cls-3 {
        stroke-width: 0px;
      }

      .cls-3 {
        fill: #231f20;
      }
    </style>
  </defs>
  <ellipse class="cls-3" cx="150" cy="248.81" rx="150" ry="22.45"/>
  <path class="cls-1" d="m149.61,56.88c-48.05,0-81.37,40.6-81.37,90.31v.83c0,49.71,34.1,91.14,82.15,91.14s81.38-40.6,81.38-90.31v-.83c0-49.72-34.1-91.14-82.15-91.14Z"/>
  <path class="cls-2" d="m294.15,149.14C294.15,66.69,234.09,0,150.39,0S5.85,67.52,5.85,149.97v.83c0,38.33,13.11,73.14,35.41,99.54h216.75c22.72-26.65,36.15-61.82,36.15-100.37v-.83Zm-62.39,1.66c0,49.72-33.33,90.31-81.38,90.31s-82.15-41.43-82.15-91.14v-.83c0-49.71,33.32-90.31,81.37-90.31s82.15,41.43,82.15,91.14v.83Z"/>
</svg>